<svg width="40" height="40" viewBox="0 0 40 40" fill="none" xmlns="http://www.w3.org/2000/svg">
<path d="M23.3333 3.33337H10C9.11594 3.33337 8.2681 3.68456 7.64297 4.30968C7.01785 4.93481 6.66666 5.78265 6.66666 6.66671V33.3334C6.66666 34.2174 7.01785 35.0653 7.64297 35.6904C8.2681 36.3155 9.11594 36.6667 10 36.6667H30C30.884 36.6667 31.7319 36.3155 32.357 35.6904C32.9821 35.0653 33.3333 34.2174 33.3333 33.3334V13.3334L23.3333 3.33337Z" stroke="#2352F9" stroke-width="3" stroke-linecap="round" stroke-linejoin="round"/>
<path d="M23.3333 3.33337V13.3334H33.3333" stroke="#2352F9" stroke-width="3" stroke-linecap="round" stroke-linejoin="round"/>
<path d="M26.6667 21.6666H13.3333" stroke="#2352F9" stroke-width="3" stroke-linecap="round" stroke-linejoin="round"/>
<path d="M26.6667 28.3334H13.3333" stroke="#2352F9" stroke-width="3" stroke-linecap="round" stroke-linejoin="round"/>
<path d="M16.6667 15H15H13.3333" stroke="#2352F9" stroke-width="3" stroke-linecap="round" stroke-linejoin="round"/>
</svg>
